<svg xmlns="http://www.w3.org/2000/svg" version="1.1" xmlns:xlink="http://www.w3.org/1999/xlink" xmlns:svgjs="http://svgjs.dev/svgjs" width="5000" height="2000" preserveAspectRatio="none" viewBox="0 0 5000 2000"><g mask="url(&quot;#SvgjsMask1065&quot;)" fill="none"><path d="M4757.3578292874645 264.6668995313474L5001.762063657524 423.38486514088805 5117.636894886805-22.580469218972098z" fill="rgba(28, 83, 142, 0.4)" class="triangle-float3"></path><path d="M1016.336,1477.981C1134.329,1474.338,1263.897,1455.979,1322.39,1353.44C1380.531,1251.518,1331.917,1130.027,1272.568,1028.804C1214.124,929.125,1131.491,840.981,1016.336,831.449C883.677,820.468,745.165,866.582,674.33,979.283C599.4,1098.498,596.066,1257.281,675.703,1373.404C747.702,1478.39,889.095,1481.909,1016.336,1477.981" fill="rgba(28, 83, 142, 0.4)" class="triangle-float3"></path><path d="M3750.483182618984 569.9135227317171L3169.041000131867 334.3508028221952 3235.874187860631 878.66343657111z" fill="rgba(28, 83, 142, 0.4)" class="triangle-float2"></path><path d="M4662.0206343198115 255.0115175490612L4289.42612166744-205.1043866659144 3829.310217452465 167.49012598645638 4201.904730104836 627.606030201432z" fill="rgba(28, 83, 142, 0.4)" class="triangle-float3"></path><path d="M1424.8179628102687 989.9892319410724L1770.8591590371816 1089.2149482415978 1746.6771353745135 520.5402957509659z" fill="rgba(28, 83, 142, 0.4)" class="triangle-float2"></path><path d="M233.59705849694575 1411.9074508890187L463.55933228713195 1928.4111744324068 750.1007820403338 1181.9451770988326z" fill="rgba(28, 83, 142, 0.4)" class="triangle-float3"></path><path d="M4942.354,1127.821C5100.85,1137.27,5244.068,1032.357,5319.428,892.604C5391.165,759.571,5369.743,602.631,5296.997,470.147C5220.945,331.642,5100.365,205.55,4942.354,205.879C4784.757,206.207,4657.816,329.236,4590.261,471.62C4531.613,595.23,4571.179,731.292,4635.866,851.851C4705.531,981.687,4795.27,1119.052,4942.354,1127.821" fill="rgba(28, 83, 142, 0.4)" class="triangle-float1"></path><path d="M2791.875927015647 1303.2825524561376L2903.6334442469697 1693.0273322564512 3293.3782240472833 1581.2698150251283 3181.6207068159606 1191.525035224815z" fill="rgba(28, 83, 142, 0.4)" class="triangle-float1"></path><path d="M870.4673316557752 998.9819504065331L363.4357544453273 945.2021852454571 537.5891506379971 1355.4818756821996z" fill="rgba(28, 83, 142, 0.4)" class="triangle-float1"></path><path d="M4720.682530748534 1177.8601253433771L4365.613198804068 705.7317164028909 4155.572810250498 1177.49015309934z" fill="rgba(28, 83, 142, 0.4)" class="triangle-float1"></path><path d="M4396.363,1123.232C4581.705,1129.923,4747.94,1007.052,4832.789,842.136C4911.157,689.817,4875.371,511.36,4786.52,364.908C4701.428,224.651,4560.411,123.78,4396.363,122.777C4230.66,121.764,4078.63,215.401,3997.853,360.085C3919.03,501.269,3936.454,669.15,4011.301,812.481C4093.129,969.182,4219.698,1116.855,4396.363,1123.232" fill="rgba(28, 83, 142, 0.4)" class="triangle-float2"></path><path d="M415.6534086772597 756.6974502260623L930.15246429533 647.3372999814115 820.7923140506792 132.83824436334123 306.2932584326089 242.198394607992z" fill="rgba(28, 83, 142, 0.4)" class="triangle-float1"></path><path d="M981.5184493284352 655.8517626005001L890.4086579360032 860.4877045306442 1242.9174665274354 894.8344206542201z" fill="rgba(28, 83, 142, 0.4)" class="triangle-float2"></path><path d="M3943.467044685937 432.46202234536844L4156.956263262747 168.8247933739761 3893.319034291354-44.66442520283363 3679.8298157145446 218.97280376855872z" fill="rgba(28, 83, 142, 0.4)" class="triangle-float2"></path><path d="M4893.574114680513 1735.9334540356792L4598.445915620517 1678.566343467139 4541.078805051976 1973.6945425271358 4836.207004111972 2031.061653095676z" fill="rgba(28, 83, 142, 0.4)" class="triangle-float1"></path><path d="M271.213,1331.119C354.994,1332.144,448.523,1326.352,493.2,1255.47C539.983,1181.246,518.433,1085.867,473.168,1010.707C429.504,938.205,355.829,888.676,271.213,886.876C183.38,885.008,98.211,925.981,53.81,1001.788C8.957,1078.366,9.545,1176.088,58.438,1250.152C103.247,1318.031,189.884,1330.124,271.213,1331.119" fill="rgba(28, 83, 142, 0.4)" class="triangle-float1"></path><path d="M2540.925559396747 1050.3373237887856L2231.5676788935702 1116.0933711940665 2606.6816068020275 1359.6952042919622z" fill="rgba(28, 83, 142, 0.4)" class="triangle-float1"></path><path d="M2681.742925130696 644.1548006506007L3173.5491634994005 635.5702908277725 3164.9646536765727 143.76405245906807 2673.158415307868 152.34856228189625z" fill="rgba(28, 83, 142, 0.4)" class="triangle-float2"></path><path d="M2315.967917987214 1866.4349824240348L2808.3991888792243 1849.2389035226863 2791.2031099778756 1356.8076326306764 2298.7718390858654 1374.003711532025z" fill="rgba(28, 83, 142, 0.4)" class="triangle-float2"></path></g><defs><mask id="SvgjsMask1065"><rect width="5000" height="2000" fill="#ffffff"></rect></mask><style>
                @keyframes float1 {
                    0%{transform: translate(0, 0)}
                    50%{transform: translate(-10px, 0)}
                    100%{transform: translate(0, 0)}
                }

                .triangle-float1 {
                    animation: float1 5s infinite;
                }

                @keyframes float2 {
                    0%{transform: translate(0, 0)}
                    50%{transform: translate(-5px, -5px)}
                    100%{transform: translate(0, 0)}
                }

                .triangle-float2 {
                    animation: float2 4s infinite;
                }

                @keyframes float3 {
                    0%{transform: translate(0, 0)}
                    50%{transform: translate(0, -10px)}
                    100%{transform: translate(0, 0)}
                }

                .triangle-float3 {
                    animation: float3 6s infinite;
                }
            </style></defs></svg>