<svg xmlns="http://www.w3.org/2000/svg" version="1.1" xmlns:xlink="http://www.w3.org/1999/xlink" xmlns:svgjs="http://svgjs.dev/svgjs" width="1440" height="560" preserveAspectRatio="none" viewBox="0 0 1440 560"><g mask="url(&quot;#SvgjsMask1018&quot;)" fill="none"><path d="M441.40443904159525 205.65740994660254L472.57032065695375 272.4928587545204 557.2405530611513 192.32631192752368z" fill="rgba(28, 83, 142, 0.4)" class="triangle-float2"></path><path d="M659.9174110045553 253.42445529354865L623.7815228204972 168.2936376239928 574.7865933349995 289.5603434776068z" fill="rgba(28, 83, 142, 0.4)" class="triangle-float3"></path><path d="M740.882,227.389C760.573,227.281,777.779,215.665,788.038,198.857C798.799,181.226,803.441,159.36,793.431,141.292C783.158,122.75,762.076,113.331,740.882,113.742C720.407,114.139,701.77,125.405,691.748,143.264C681.935,160.75,682.711,182.064,692.823,199.378C702.846,216.538,721.009,227.498,740.882,227.389" fill="rgba(28, 83, 142, 0.4)" class="triangle-float1"></path><path d="M1290.4311955945623 383.9980607448622L1180.4253315572314 306.9711254986508 1103.39839631102 416.9769895359816 1213.4042603483508 494.003924782193z" fill="rgba(28, 83, 142, 0.4)" class="triangle-float3"></path><path d="M464.445,513.505C517.282,513.573,570.205,495.021,598.072,450.13C627.403,402.881,629.1,342.123,600.406,294.484C572.53,248.203,518.463,227.21,464.445,228.274C412.408,229.299,364.249,255.042,337.453,299.661C309.818,345.677,304.007,403.633,331.415,449.785C358.323,495.096,411.747,513.437,464.445,513.505" fill="rgba(28, 83, 142, 0.4)" class="triangle-float1"></path><path d="M693.813,483.774C708.949,483.117,721.619,473.783,729.476,460.83C737.691,447.288,741.812,430.802,734.453,416.776C726.626,401.858,710.614,391.616,693.813,392.858C678.521,393.989,670.106,408.846,662.4,422.103C654.633,435.464,645.34,450.406,652.354,464.176C659.79,478.774,677.445,484.484,693.813,483.774" fill="rgba(28, 83, 142, 0.4)" class="triangle-float1"></path><path d="M1035.9197011232725 524.1850823898844L927.870143909899 448.527967928859 852.2130294488736 556.5775251422325 960.262586662247 632.234639603258z" fill="rgba(28, 83, 142, 0.4)" class="triangle-float2"></path><path d="M1519.9148619483456 90.65262138795045L1431.9501844010438 31.31969720099771 1372.6172602140912 119.28437474829938 1460.5819377613927 178.6172989352521z" fill="rgba(28, 83, 142, 0.4)" class="triangle-float3"></path><path d="M308.69805954452454 345.56652296259034L441.9534981196015 410.5595429592918 506.94651811630297 277.30410438421484 373.691079541226 212.31108438751338z" fill="rgba(28, 83, 142, 0.4)" class="triangle-float1"></path><path d="M-35.36769621782792 520.6990499688344L54.91222954381555 649.6321459941514 183.84532556913263 559.352220232508 93.56539980748914 430.4191242071909z" fill="rgba(28, 83, 142, 0.4)" class="triangle-float3"></path><path d="M527.5507600670576-29.314971485710032L509.0393532396988 102.40053217241467 640.7548568978235 120.91193899977341 659.2662637251823-10.803564658351291z" fill="rgba(28, 83, 142, 0.4)" class="triangle-float1"></path><path d="M1153.6765076490087 352.7568688982125L1138.7335075388148 258.4104793186857 1044.387117959288 273.3534794288797 1059.330118069482 367.6998690084065z" fill="rgba(28, 83, 142, 0.4)" class="triangle-float1"></path><path d="M1091.837253713516 271.9996590435888L1001.650610843386 133.12440748381715 862.7753592836143 223.31105035394725 952.9620021537444 362.1863019137189z" fill="rgba(28, 83, 142, 0.4)" class="triangle-float3"></path><path d="M337.553,252.317C368.215,253.747,397.141,236.805,412.431,210.189C427.665,183.67,427.32,150.412,410.921,124.598C395.565,100.426,366.184,91.74,337.553,92.32C310.086,92.877,282.793,103.62,269.159,127.471C255.613,151.167,260.753,179.788,273.867,203.726C287.617,228.825,308.965,250.984,337.553,252.317" fill="rgba(28, 83, 142, 0.4)" class="triangle-float3"></path><path d="M24.509,210.028C41.578,210.359,55.471,197.439,63.466,182.355C70.93,168.272,70.82,151.531,62.819,137.746C54.85,124.017,40.381,115.459,24.509,115.24C8.241,115.015,-7.783,122.435,-15.677,136.662C-23.372,150.53,-19.537,166.985,-11.918,180.895C-3.913,195.51,7.848,209.705,24.509,210.028" fill="rgba(28, 83, 142, 0.4)" class="triangle-float2"></path><path d="M244.20967411812427 142.00922191754142L205.5722904425074 62.790845738850976 126.35391426381696 101.42822941446784 164.99129793943382 180.64660559315828z" fill="rgba(28, 83, 142, 0.4)" class="triangle-float1"></path><path d="M711.5206710619599 252.60433483292474L800.119279866668 370.178659849985 917.6936048837282 281.58005104527695 829.0949960790201 164.00572602821669z" fill="rgba(28, 83, 142, 0.4)" class="triangle-float2"></path><path d="M1318.805,375.171C1349.417,372.811,1371.611,350.108,1387.914,324.091C1405.687,295.729,1424.348,261.897,1408.137,232.615C1391.636,202.81,1352.852,198.062,1318.805,199.259C1287.28,200.368,1257.093,212.201,1239.73,238.537C1220.359,267.918,1210.769,305.929,1228.397,336.388C1246.001,366.807,1283.763,377.872,1318.805,375.171" fill="rgba(28, 83, 142, 0.4)" class="triangle-float3"></path><path d="M742.018,359.875C764.933,360.101,787.977,349.644,798.357,329.213C808.027,310.179,797.816,289.119,787.446,270.457C776.635,251.002,764.186,229.815,742.018,227.827C716.985,225.582,691.87,238.722,679.879,260.81C668.331,282.082,674.711,307.615,687.572,328.119C699.537,347.195,719.501,359.653,742.018,359.875" fill="rgba(28, 83, 142, 0.4)" class="triangle-float2"></path></g><defs><mask id="SvgjsMask1018"><rect width="1440" height="560" fill="#ffffff"></rect></mask><style>
                @keyframes float1 {
                    0%{transform: translate(0, 0)}
                    50%{transform: translate(-10px, 0)}
                    100%{transform: translate(0, 0)}
                }

                .triangle-float1 {
                    animation: float1 5s infinite;
                }

                @keyframes float2 {
                    0%{transform: translate(0, 0)}
                    50%{transform: translate(-5px, -5px)}
                    100%{transform: translate(0, 0)}
                }

                .triangle-float2 {
                    animation: float2 4s infinite;
                }

                @keyframes float3 {
                    0%{transform: translate(0, 0)}
                    50%{transform: translate(0, -10px)}
                    100%{transform: translate(0, 0)}
                }

                .triangle-float3 {
                    animation: float3 6s infinite;
                }
            </style></defs></svg>