<svg xmlns="http://www.w3.org/2000/svg" version="1.1" xmlns:xlink="http://www.w3.org/1999/xlink" xmlns:svgjs="http://svgjs.dev/svgjs" width="379" height="100" preserveAspectRatio="none" viewBox="0 0 379 100"><g mask="url(&quot;#SvgjsMask1025&quot;)" fill="none"><path d="M37.121,48.834C41.666,48.443,44.666,44.616,46.925,40.653C49.154,36.742,50.903,32.226,48.881,28.203C46.681,23.825,42.021,21.135,37.121,21.147C32.241,21.159,28.021,24.106,25.462,28.261C22.753,32.66,21.338,38.141,23.885,42.635C26.46,47.178,31.918,49.281,37.121,48.834" fill="rgba(28, 83, 142, 0.4)" class="triangle-float1"></path><path d="M161.082217074193 28.884037118787013L179.69783602869165 41.440430649889635 192.25422955979428 22.824811695391 173.63861060529564 10.268418164288374z" fill="rgba(28, 83, 142, 0.4)" class="triangle-float1"></path><path d="M260.45378438055866 20.035227714600545L250.1679312173661 32.737198538364105 262.86990204112965 43.02305170155667 273.1557552043222 30.321080877793108z" fill="rgba(28, 83, 142, 0.4)" class="triangle-float1"></path><path d="M334.9846374363818 54.286241557886825L351.2628747483469 39.10653968875036 319.8049355672453 38.00800424592171z" fill="rgba(28, 83, 142, 0.4)" class="triangle-float3"></path><path d="M46.8003320149065 42.7135180215211L56.17656434562258 68.47450462972392 81.93755095382541 59.09827229900784 72.56131862310933 33.33728569080502z" fill="rgba(28, 83, 142, 0.4)" class="triangle-float3"></path><path d="M51.123,59.118C59.892,59.623,68.251,54.948,72.737,47.396C77.318,39.683,78.071,29.686,72.997,22.288C68.391,15.573,59.255,15.465,51.123,15.885C43.933,16.256,36.567,18.2,32.84,24.361C28.998,30.712,29.975,38.561,33.431,45.131C37.182,52.262,43.079,58.655,51.123,59.118" fill="rgba(28, 83, 142, 0.4)" class="triangle-float3"></path><path d="M183.375,66.376C186.63,66.381,189.027,63.601,190.505,60.701C191.835,58.091,191.945,55.02,190.445,52.504C188.98,50.047,186.235,48.803,183.375,48.743C180.394,48.681,177.301,49.634,175.778,52.198C174.228,54.807,174.85,58.004,176.284,60.679C177.819,63.544,180.125,66.371,183.375,66.376" fill="rgba(28, 83, 142, 0.4)" class="triangle-float2"></path><path d="M129.1381354067282 39.230757597484796L126.90680944790336 64.7349300113619 152.41098186178044 66.96625597018675 154.6423078206053 41.46208355630964z" fill="rgba(28, 83, 142, 0.4)" class="triangle-float1"></path><path d="M170.84015285816722 91.00379163308848L158.95187924795346 71.9785768839759 139.9266644988409 83.86685049418966 151.81493810905465 102.89206524330223z" fill="rgba(28, 83, 142, 0.4)" class="triangle-float3"></path><path d="M390.9481972731477 12.303998693028078L375.5867643445115-13.261718949604791 350.0210467018786 2.0997139790314225 365.3824796305148 27.66543162166429z" fill="rgba(28, 83, 142, 0.4)" class="triangle-float3"></path><path d="M353.0183875714972 92.40177949763043L378.15259037575333 111.37934205407277 381.9841322708505 84.11650486365153z" fill="rgba(28, 83, 142, 0.4)" class="triangle-float1"></path><path d="M78.68832878756278 24.04387569802546L74.77986885077209 12.014872894855735 58.690594614412845 23.892064201626628z" fill="rgba(28, 83, 142, 0.4)" class="triangle-float1"></path><path d="M234.302,105.613C241.678,105.704,248.953,102.534,252.657,96.154C256.375,89.75,255.26,82.001,251.82,75.443C248.069,68.292,242.377,61.083,234.302,61.16C226.307,61.236,220.978,68.644,217.351,75.769C214.118,82.121,213.195,89.512,216.716,95.71C220.278,101.98,227.092,105.524,234.302,105.613" fill="rgba(28, 83, 142, 0.4)" class="triangle-float2"></path></g><defs><mask id="SvgjsMask1025"><rect width="379" height="100" fill="#ffffff"></rect></mask><style>
                @keyframes float1 {
                    0%{transform: translate(0, 0)}
                    50%{transform: translate(-10px, 0)}
                    100%{transform: translate(0, 0)}
                }

                .triangle-float1 {
                    animation: float1 5s infinite;
                }

                @keyframes float2 {
                    0%{transform: translate(0, 0)}
                    50%{transform: translate(-5px, -5px)}
                    100%{transform: translate(0, 0)}
                }

                .triangle-float2 {
                    animation: float2 4s infinite;
                }

                @keyframes float3 {
                    0%{transform: translate(0, 0)}
                    50%{transform: translate(0, -10px)}
                    100%{transform: translate(0, 0)}
                }

                .triangle-float3 {
                    animation: float3 6s infinite;
                }
            </style></defs></svg>